HIERARCHY
ROOT Hips
{
	OFFSET 0.000000 0.000000 0.000000
	CHANNELS 6 Xposition Yposition Zposition Zrotation Yrotation Xrotation 
	JOINT LHipJoint
	{
		OFFSET 0.000000 0.000000 0.000000
		CHANNELS 3 Zrotation Yrotation Xrotation
		JOINT LeftUpLeg
		{
			OFFSET 1.363060 -1.794630 0.839290
			CHANNELS 3 Zrotation Yrotation Xrotation
			JOINT LeftLeg
			{
				OFFSET 2.448110 -6.726130 0.000000
				CHANNELS 3 Zrotation Yrotation Xrotation
				JOINT LeftFoot
				{
					OFFSET 2.562200 -7.039590 0.000000
					CHANNELS 3 Zrotation Yrotation Xrotation
					JOINT LeftToeBase
					{
						OFFSET 0.157640 -0.433110 2.322550
						CHANNELS 3 Zrotation Yrotation Xrotation
						End Site
						{
							OFFSET 0.000000 0.000000 0.000000
						}
					}
				}
			}
		}
	}
	JOINT RHipJoint
	{
		OFFSET 0.000000 0.000000 0.000000
		CHANNELS 3 Zrotation Yrotation Xrotation
		JOINT RightUpLeg
		{
			OFFSET -1.305520 -1.794630 0.839290
			CHANNELS 3 Zrotation Yrotation Xrotation
			JOINT RightLeg
			{
				OFFSET -2.542530 -6.985550 0.000000
				CHANNELS 3 Zrotation Yrotation Xrotation
				JOINT RightFoot
				{
					OFFSET -2.568260 -7.056230 0.000000
					CHANNELS 3 Zrotation Yrotation Xrotation
					JOINT RightToeBase
					{
						OFFSET -0.164730 -0.452590 2.363150
						CHANNELS 3 Zrotation Yrotation Xrotation
						End Site
						{
							OFFSET 0.000000 0.000000 0.000000
						}
					}
				}
			}
		}
	}
}
MOTION
Frames: 16
Frame Time: 0.008333
14.270099 18.605895 2.206998 24.439161 -86.031621 -27.850293 -10.827374 6.380884 3.098422 2.635051 19.035680 1.246476 0.273622 1.001328 18.727005 2.532005 15.203616 33.569916 8.799600 0.000000 -64.420100 11.659215 -4.633551 -0.215006 -8.409609 -28.973426 9.326331 -0.605327 -1.166480 14.076148 -1.717713 -5.655093 37.552029 -3.373000 0.000000 -80.386500
14.177880 18.769316 2.190852 24.616779 -86.041276 -28.217079 -10.829882 6.320262 3.056717 2.494351 19.011257 1.020381 0.264815 0.999064 18.496917 2.532984 15.123511 33.895516 8.809100 0.000001 -62.959600 11.683949 -4.520861 -0.262213 -8.238567 -28.813417 9.065114 -0.694277 -1.137898 14.050403 -1.899524 -7.726583 37.798360 -4.829500 0.000001 -78.556700
14.092220 18.916738 2.175371 24.635348 -86.024421 -28.417126 -10.830004 6.235602 2.979769 2.300977 18.962428 0.702522 0.247345 1.006839 18.443907 2.518045 15.119034 33.650735 8.769500 0.000000 -62.280100 11.701452 -4.380553 -0.366190 -8.077758 -28.785895 8.715130 -0.759813 -1.115375 14.180730 -2.056906 -9.768817 37.362994 -6.226400 -0.000001 -77.200800
14.012350 19.048984 2.160862 24.311711 -85.986936 -28.268531 -10.837563 6.126801 2.866211 2.097489 18.941132 0.278517 0.221674 1.022395 18.563547 2.488231 15.120721 32.950380 8.652700 0.000000 -62.008501 11.704994 -4.224557 -0.515222 -7.900160 -28.869156 8.305189 -0.799245 -1.097782 14.366292 -2.191179 -11.653653 36.477410 -7.455500 -0.000000 -76.511901
13.937817 19.166940 2.147191 23.732982 -85.925909 -27.867162 -10.850832 5.996103 2.721203 1.882318 18.935063 -0.215670 0.190791 1.042815 18.790977 2.452454 15.146515 31.980143 8.501900 -0.000000 -62.050200 11.700732 -4.055468 -0.714709 -7.755758 -29.110013 7.848500 -0.807339 -1.087369 14.597453 -2.288327 -13.140031 35.271034 -8.337400 0.000001 -76.076600
13.868153 19.271754 2.134506 22.899272 -85.849196 -27.211486 -10.873252 5.844160 2.548126 1.669792 18.958521 -0.775244 0.156714 1.065281 19.084992 2.416083 15.180677 30.893472 8.332200 -0.000000 -62.179200 11.689163 -3.879891 -0.956852 -7.639748 -29.495408 7.348322 -0.783421 -1.084340 14.834782 -2.343581 -14.141849 33.927664 -8.832200 0.000000 -75.803800
13.802870 19.364620 2.122982 21.851388 -85.769663 -26.328703 -10.907099 5.671283 2.354411 1.459722 19.005463 -1.398946 0.123071 1.086113 19.386572 2.387164 15.248310 29.859213 8.189000 -0.000000 -62.432000 11.671477 -3.703086 -1.227448 -7.522558 -29.975244 6.793391 -0.731633 -1.086983 15.029847 -2.361175 -14.695559 32.648412 -9.007200 0.000000 -75.866101
13.741348 19.446537 2.112808 20.653063 -85.697786 -25.280476 -10.951911 5.480831 2.144539 1.254696 19.081397 -2.072070 0.090612 1.104013 19.649665 2.366608 15.336835 28.956740 8.078900 -0.000000 -62.369200 11.649431 -3.528885 -1.520242 -7.404154 -30.539086 6.177933 -0.652650 -1.096232 15.183540 -2.336413 -14.782843 31.501427 -8.879700 0.000000 -75.757000
13.684133 19.517761 2.103766 19.511791 -85.646179 -24.251219 -11.002632 5.273035 1.924054 1.025491 19.167163 -2.800382 0.061604 1.116192 19.820373 2.362474 15.510669 28.307288 8.064500 0.000000 -62.678099 11.631147 -3.350948 -1.823866 -7.258627 -31.124897 5.457837 -0.557000 -1.109089 15.296814 -2.286310 -14.564906 30.599506 -8.591901 0.000000 -76.331400
13.629857 19.578619 2.096364 18.327855 -85.628828 -23.143994 -11.062464 5.052458 1.696365 0.792730 19.286743 -3.570708 0.033418 1.122344 19.872436 2.366205 15.705850 27.853020 8.098000 -0.000000 -62.457500 11.608830 -3.178160 -2.126841 -7.052827 -31.699756 4.648592 -0.444209 -1.125367 15.349559 -2.211692 -14.088877 29.894714 -8.178000 0.000000 -76.548500
13.578348 19.629006 2.090487 17.230970 -85.654846 -22.072696 -11.126101 4.821321 1.466533 0.533294 19.423152 -4.377519 0.005468 1.120604 19.761132 2.379671 15.958694 27.608462 8.206900 -0.000000 -62.203900 11.585920 -3.005584 -2.419071 -6.761102 -32.207023 3.730418 -0.322925 -1.141419 15.335005 -2.130683 -13.526103 29.380807 -7.750400 -0.000000 -76.878101
13.529133 19.668537 2.086015 16.258976 -85.729367 -21.073198 -11.190188 4.583064 1.235917 0.241928 19.580415 -5.211964 -0.025640 1.110979 19.469801 2.397566 16.247916 27.503123 8.367300 0.000000 -61.908600 11.561146 -2.831795 -2.693582 -6.366840 -32.612282 2.706481 -0.197366 -1.154742 15.249219 -2.053747 -12.993044 28.973718 -7.368000 0.000000 -77.251099
13.481334 19.696554 2.083038 15.350732 -85.853812 -20.084201 -11.254476 4.340704 1.004735 -0.075165 19.780760 -6.081695 -0.064739 1.094251 19.011392 2.410768 16.513969 27.429971 8.524600 0.000001 -61.438700 11.529119 -2.658939 -2.942625 -5.851486 -32.893372 1.583559 -0.068920 -1.162767 15.088318 -1.987794 -12.583618 28.566238 -7.071200 0.000000 -77.512700
13.434127 19.712624 2.081376 14.469061 -86.022282 -19.072445 -11.317079 4.097386 0.772907 -0.416984 20.038250 -6.991320 -0.116461 1.071743 18.406634 2.411392 16.703713 27.291964 8.627700 -0.000000 -60.900200 11.486553 -2.487408 -3.162537 -5.216032 -33.046916 0.375872 0.061788 -1.162902 14.851503 -1.936887 -12.361344 28.053518 -6.881100 0.000000 -77.699100
13.387302 19.716109 2.080173 13.772800 -86.220952 -18.211560 -11.369091 3.857417 0.542491 -0.805994 20.310828 -7.902735 -0.181448 1.044145 17.634217 2.400503 16.839505 27.076580 8.687600 -0.000000 -60.738100 11.439862 -2.308910 -3.361086 -4.508297 -33.093384 -0.879761 0.191880 -1.152695 14.531677 -1.903701 -12.350181 27.377157 -6.800000 0.000000 -78.028300
13.339387 19.707224 2.079663 12.989891 -86.437746 -17.235188 -11.417328 3.621895 0.309855 -1.212493 20.670254 -8.871493 -0.268548 1.014504 16.799481 2.360444 16.755087 26.636799 8.574100 0.000000 -60.318000 11.378056 -2.133796 -3.531686 -3.717997 -33.059728 -2.177116 0.328594 -1.130843 14.144323 -1.881397 -12.496889 26.444252 -6.777600 0.000000 -78.059800
